<mxfile host="app.diagrams.net" modified="2023-10-17T16:14:57.896Z" agent="Mozilla/5.0 (Windows NT 10.0; Win64; x64) AppleWebKit/537.36 (KHTML, like Gecko) Chrome/118.0.0.0 Safari/537.36" etag="3v5tXdVcxZFlR1_HwdTj" version="22.0.4" type="device">
  <diagram name="Page-1" id="CpSMOksI4slDCRBkFYq-">
    <mxGraphModel dx="1050" dy="579" grid="1" gridSize="10" guides="1" tooltips="1" connect="1" arrows="1" fold="1" page="1" pageScale="1" pageWidth="827" pageHeight="1169" math="0" shadow="0">
      <root>
        <mxCell id="0" />
        <mxCell id="1" parent="0" />
        <mxCell id="MGJxNX5ja89FjLUUblip-2" value="" style="rounded=0;whiteSpace=wrap;html=1;" vertex="1" parent="1">
          <mxGeometry x="30" y="60" width="350" height="170" as="geometry" />
        </mxCell>
        <mxCell id="MGJxNX5ja89FjLUUblip-3" value="STATIONS" style="rounded=0;whiteSpace=wrap;html=1;" vertex="1" parent="1">
          <mxGeometry x="140" y="70" width="120" height="40" as="geometry" />
        </mxCell>
        <mxCell id="MGJxNX5ja89FjLUUblip-4" value="" style="shape=image;verticalLabelPosition=bottom;labelBackgroundColor=default;verticalAlign=top;aspect=fixed;imageAspect=0;image=data:image/png,iVBORw0KGgoAAAANSUhEUgAAAxwAAAEPCAYAAADI2sIUAAAAAXNSR0IArs4c6QAAAARnQU1BAACxjwv8YQUAAAAJcEhZcwAADsMAAA7DAcdvqGQAADrvSURBVHhe7d0LfBTlof//byAhJOUiGF01qNHCrwSQSzwSaMWutXKxf8BU22BFGmxp4Xf4yRH+h+BPfZH+sZXQP9r4o3/wcI6mCEfi0XLxJQGpx1VsIXgIlwqhB6wRTXUFEQklQG7/55mdQC4bSCCTXeTzxnFnnpl9ZnYXdp7vPDOzMdW1NbVSjFRbq9qaGnXo0MFMxai2ulpVZqg15bFxcc4iMTFmjhnqs/PtYIvtc2I6drRVyZSqYwczbpaprK5ynmen7bNjVKOqqirn+R06dlCHmA7OeE1tjbNu+5+to0OMrauu/vrrtrXXqMZsb3V1jVm+ozp2jHW2oU6N87JqTR22xtAMuy21NWYba806TVlN5Un9+b1NKir6k2pj4nTTwFs07FvfUnVlteJiO+rEsaM6+OknOvz5QV19zTVKuvIqdej8NfvKVHGyQnuLN6p4+3Z17JRonnuz0m5OV/WpSv1l93sq2bNTn31Wpri4jopL6KmYDvY1mPez5pROVPxdx44e03XX36gh5jlf/0Z/nTTvx/pVBfqk7GP5rk7W4LRb9PXUQeY9Me+ZeX9iVK2KY1/qo9J9Cry+2mxvJw1MG2aWS1fC176mgwfLtHvXNn380UcqL/+7qszr7N6tk/PenTx5SjVVNbqsa0/16ztAKTf0Vreel0vxnVVddUoH9mxT8bb/UtC8zir7JnWI1WU9kpRyXYrzd+LTv5Xp0MFP1e3yHs572bGDee/MZ/33Y8fM6+uk9KFDdcONN+qYWe+WzZtVduAj5+9MfHy8+Vw6Op9nfKdOKj96VMfMe9o5vpO+0TdVw76ToZjYTs5n9PfyL7X7z9u0vfhPOmnen8SvdVWf/zFAI277rmLju5jXaz9DW1esGbefpv2M7d8r82mYIfTpxjvlAAAAiB4dH3v88Rw74gQN06irCw91bIMxxoQC27iva/Db8brpukBgW5U2PDiLmOFMHU40cKZDZab+UNPfNMLNc5xCs4xpINeVOX+cZUNBpG69tnFpl3EGE05s7Ohgl3frDi3mzjfLOmVmyq7P+eNspw0hthFvymtiTAP4C1WcOKHu3Xvq6l7XmlCRpEoTOGyAiYvrrC6m4dujx+Xq3tOnmE4J9tk6ZdZtG/THv/xcJ05VqdtlV+iqq6/X5T18pqGdqK8ldFEn89wOpuFuw0lNbZy6dO2mK670meWu0eWXJyk2Nt6UXa6eSVera/cks11x+vLw5+Y9jNPlST5deVUvdTPl1dX23TD1OC+52gSESn1+6KASu1yuK3zXO8/vZELQ1xK/ps6dE0yGSFRcp85O/VWVNkB2Mo33bvL5eqn311PVp3d/dTHba1KQeQNM8DKfe/cuXUzgMe+P2d4O5rnmf07guMEEk6uu7qWkpCvUo2eSCUrHnTBmsob5OxFvlvHpxj799fU+/dTFjMd3+poJP5eZbTShxLyOGBPi4mI7q2vX7iZEXaOel/vUpVtPJXS5TInm/b7q2msVZ0JPhw5xzvvqfM611ea1dNGVZnt7XdfbPF5n5oX+rtng5XA+ZzttR0KfaWieCSQAAACIKjEVJ0/U2kZnXKxpIJoCGyScHgfbjqtjJk+dOuU0TmNjY0+HDdves70StjUc4/SM2FHb2A89vcaM2z+hFmKo3I7FVJvnmz82LNgSGzZsj0RHG1hMPXZRp7fDNFjrAo1dVyiMSNU1Vc6Rd7sNNuTYOuwydrvso91OO4TWZoUeTS3mf2aZarMeEzY6mJK///1TfXn0sDqY19+lew/TkP+aWbeZb7aho33h9nB6tZ0wjVlTt2lLq8ZsR22M2ebyoA4eOuSEjMsuu1KJCd1VfcqEFdNAPnni76buoybM/F01MaYhb54e37mj4uPt+1el8i+PmWCQ4ISOzl/rrkrznpwq/0xHvvjcLJegHpdfoU4JXU2wsQ1xsyV2g2pOqerUMX1xsMzp4bCho7Ndp3lNnU3dp04edUJBpfmsKiurzONJmySdzyw+Ll4JnbuYoZvMBjufqX0NVbWVijON/IOffaqTlXb5GCdExZvg0aP75eoU28kJObbXoabiiBO0qsx7Z3uEbNCJT0xUogk7tvfK9npUV1Xp+NFyVRz/u9N7YkOi7eWx72ut+Xt14lSlKs3n1DkhwQQq87yONsR1Mh9LrSpPHNOxI5/q1InjJoiY96ZbkgkwPc28CqfnzH4i1ebzqDGD03NiP1PzXtrP1P7dMS/MKQMAAED0iDlVdbLWHh2OtS1iw2nc29ZoHbfNXm1Pl7INfKchbxq/DjdQOIHAloca/mYiNNeM2z/2eaHl3FmmcekEFqdyM8eGALOsU7ezgClzTokKNSBDddq2cKheG1BMibNoqMzWb5ZzA0eo56Tea3DWY2u1j6ZupzPFLmPXfdJsTpUTdDqYRqytx7bGnXps8DhdT+i1OfOdoGS2t9Y07E3jPqZDrNOjYOusqao+8zrMipxTuMy0DVDO0zra8lpVm0Bge0BiOprGv1mfDQ0dO5hG90nTuDbLx3aypwfZchvsQu+UeeXm0QS86lNm3HxeptFvG9/21LdOcXY77WlqZr5d2mxo6LQyd3Od12GGWvs8W2BfiwlNZhttW92GE/u+dYztaOoz8+xpaqZ++z7GmPfVvDDzHNu14Tw1VJez7bbArstum33v7d8j83wTUuznYced7Tehx67Xfq621L7XJsaawT6G6rGnjdVWmc/DPNcGjA6xnU1xrHnOCacOu077GdrXHFqPYf9umMH5e+AsAwAAgGgSU1tbGWqVOkOdxtP12dam0+J01U3b5d1GYKu0dX0t1dx66//fboNpcDvTlh07M2Vavu6IebQ9EE5T2rIN+3rLOvPMuLt4rTPPlDjldsQOdtyGgjPcuQ47XjdtckkDZ9rZ9ZeyW2Ma5jY4nd4uM3Y6QNlAFZpnN8eO17E9EbafxkYAu1mh9Z2Zf04xdeuz7Ouu28DTGxrSodL+z9Rstyk0L8amQbMqu2VOSHKKTagLzTVDaFkT65wpZwjlGm//ugAAAOC8NGzhAgAAAEAbiql1zlcCAAAAgLZHDwcAAAAAzxA4AAAAAHiGwAEAAADAMwQOAAAAAJ4hcAAAAADwDIEDAAAAgGcIHAAAAAA8c+kGjuJ8JQyY2cyQryJ3MQAAUGeXcsPuN2cqt9hd5LSgCqaFX3bCqqC7TFNFC+vqCq3rbMsGV+Wa+nJVcHqR83mOK7hRE6Zt1HvO/HCvx3Jfv1ku2GC8qdB6QvXUH2+qXj1u2yT89te9n+dqo9j6wrw+IIIu8R6OgQq895QqmgxZSneXAAAADeUsa7TffGOMtk8K31AePy+74bJmHzvkcdMAX7jLXaK+XQo8P1D+NHfSej0/fEPdBIQZr5v63ckGzuM5wT+ZJ4wcqAEZ2QpMNq9xUtOGfXBVoXJs22HxnfKZx2zzusdvKtSMJq97l/IfDzqvPdu8Fl9L60zLUuk8n9Y8nt80MBQXKmuTT/lvNNdGcQPJwqBSRvhUurwl4QRoH5xSBQAALozvTq1cNjB8Q7kJt6H+fJhQUFysnMlpDRrUQ0amafubTcOJDQh2Xjitf05QARNEMr7pc6bSZ2WZELBL/vqhyIYVEyJyltVr8JvXnRcmIBQtzFfOiDHKywjVZ7W0Tl9GlvJHBJWVU7/nZJdyJ+0yASZLmWeqbMSnzMUm0N1eZoKJWcftoXDHAVREAwLHWbndkqvqTr+qd6TAdr06Ze7Q6EiN7RJOWLixQXeyc+SnwfPo8gQAfEWkjXEayqv+1IIdm2moP2yP+DcKBcEPgxp/Y6MW9fUDlbG/sNH+0vYg+OT/pjvZWKufE1TpJp9STq/ahCIToHQ6FAVVkFOoNZOznB6L+poEhOJ8+Z/3KT/H9oLU19I6TXDIadhzEi7AhGfqXLpLOfNsjxO9G4geBI5zMl8iryer1O0Gdo4U2HMs7yjUkNNdylnKMV8gTbqHny9U6RR3GefIT64ScqQ8t1s5MLnxEQwAAC5WpsHeW1rz15bt1VJssNgfrLcPbNjLcIYJCSPVMMiE6QlpqJXPCTcvLSt0GtRSe22FPZ1poAKzTGBo4kxAyC8ONfib7YloaZ2ne04KVRTcqKfDBpgwgru0SmOUlWED3S4Fwp1WBkTAJR44dsl/ureh+V6H8SMHNvhHXmSPyDQ4IlF31KK44dGEEeYffd0yaWkyWUM5U858YThftgAAwG0sp8kfZtfo+6bZmb6+63Q4sfvhnNvDNf7PaM1zmpvnnAZlgkTKJDO//qlUjbkBIWdSrrJMg/9sPREtrTPUc2LaKXcUSmc9laoee2qbc32JXc9TTXpjgEjhonG3t+HMkN3kH/WQ6+sXBFW634SQxmHBCRRmXv2w0tt37qMRAABAKivTmub2m76BylCxAs4+NsyF5eG0+Dl2v+5TSrI72cBAZZkg0eAAYjN8GWOaHFgMr6V1+pQ5xYaggXr4nKdSAdGNU6raSjCo7e4oAACXntABuXP1PNQp/WuwwRkEZ++1qHeK1DlPp6rTwuecpWcFQNsgcLRaM+eo2iMzdh5fWACAS5F7TcI5ex4s97qEM9drnLvXou4UqYIWnE5VpyXPqbsdLrtvwDsEjvOQbr+0GtzOL3S7OrXoiAsAAF8x9g6Mzm1bx7RgP2j2mXfYuzONOXMKsz1L4Fz7UJ9PQzaZUNOS06nqtOA5pX8Nd6E6gLZE4DgfaVmnf+QodKF5vnImm7Kwd68AAOCrJef0/s8d3Ds3rgxzrYFzh8b6y5p95nb7Y4D19plOL8M5b6RiQsNk89Cqg3vneo7tWeHsBMBrMbWGOw4AAAAAbYoeDgAAAACeIXAAAAAA8AyBAwAAAIBnCBwAAAAAPNOmF43/nxfe1gurtmr3/k9UU8O16ACAyOjQIUb9e1+tBzKG6n89cJtbCgCIhDYLHJP++QX9R+F2de+aoKPHKsS9rwAAkRITI3XrkqAvyyv0gzFDtOzXD7hzok9ZWZn27NmjQ4cOuSUA0H6SkpLUr18/JScnuyVtr00Ch+3ZmJ27Wgmd4/Tck/dr7B03qWMH820PAEAEVNfU6tU3/qwHH1mhihOVWpB9d1T2dNiwsWXLFg0dOlS9evUyQYl9J4D2Y2PAxx9/rK1bt2rYsGGehY42uYbDnkZlezZs2Lj7zoGEDQBARNn9kN0f2f2S3T/Z/VQ0sj0bNmxce+21hA0A7c5+79jvH/s9ZL+PvNImgcNes2FPo7I9GwAARAu7X7L7J7ufikb2NCrbswEAkWS/h7w8rbNNAoe9QNyemEXPBgAgmtj9kt0/RfONTOjZABBpXn8PcVtcAAAAAJ4hcAAAAADwDIEDAAAAgGcIHAAAAAA8Q+AAAAAA4BkCBwAAAADPEDgAAAAAeIbAAQAAAMAzl1TgSBgw0x0DAAAA0B7o4QAA4GJUfVi7392hze++r4PVbll9x/6mYjt/72G3AAAig8ABAMBFp1wbfr1A985/Tb+av1S3/XqzjrpzHKd2aO49z2ja4tf0TzMW6J/eLHdnAED7I3AAAHDR+VDb1kkPzH1Ur84doJPr3td+d47jy8P6qGKAfrP0US2+W1q790N3BgC0v4smcBw98K5++9gvNfePHKUBAFyiDm7W3Jm/1NifvaKX3KKQvZrzM1vuDtn/qc2mNL5jaK7WveKU3//UZn0U7vSr1qrep7yxMzVhVdAtqLNLuQNmOtdMNj/kqqDx04yihWbe7Hd0xJ1u4It39PDQmcotdqcbqz6swJKF8o8IrSN17ELlbT7LqWTVZjtNfQ9vqGtTVKg0UKBp985WirudQ+49Sx2tWN+JA0XKmzFXQ8z67LIpd8zVtCXFCob7HMr3ac3ChvXmrtunI23xmQERFPWBwwkajzym9ImvaOHbceqd0tWdAwDApeXgu5v1wn+Va/feioanUKlK+/facnfYX6WT7hzHlxVO+ebVm3W2dnjLVKjoN/ma84E72cDlGjQ1TfPDDZk+9bWLJHZT90Rn4Xr2acvr0vjhfXSZW3JadVAFj/9eS467043Z+TOe0Jjnjir1wXEqXDpOM248rDlTnlBWk0Dk2leiVcd9GjbYtinM61n4hFKnFynQo59yF01U4aIxmtAj6NQxZkmJToSeFdKK9Z0oztfouwo0pzhREx7JNMtmKveuRAUWLVd6ZoF21P+QjpsQ9KPFmlBQV2+mckZUaPHsxbr7N7sabgNwkYnawNEgaPwx9MUZf89I/TA5NB8AgEtd4KXl+tVL77tTjb2vpYtWatkud7ItVJdrx9KFyny+wi1oLFmjp0/UjCbDPRqkoPYqQTlLsjS68bHDD0q0vqyrRg/2uQWu6jKtyXlGWQF3Oozg2nwzP0HZi+Zo8WS//MP9mpr3mAKTEkxQWa41X7gL1lO6bY929k9Vul3dvkJlm9czaNJEbV+apUx/mvz+O5W99BcqzDTv8aJXtPJA6HlWy9dXqvy5u1SUPFCBDdnKzkg3y6Yrc1a2ti9OlfYW6Rery9xlpR3LCpTzgX1/6uo1y85+TKtnJKjo+QI9u9tdELgIRV3gCBc0Qnrqf987WPHuFAAAl7r9b7+nf327ucZ/hTa8tENr26qhGixW3tR5Gp532DTIGwWDczixabmyCqT0qSZ8pCW4pWcEd5QokNxPg29wC4wjezdqTuZCTVglEwKaO7uhTIUvB6X+6coaWr/eBKX/wDTwzfz818806kOCKnqnXIO+m6oUO/XXj/VlopTx3TR1Di3gSpD/ewPN42Gt31bXc9GK9R36WH+xvTIj05TeqEen84h0TTOP6wN7zNZYZfrLvlj1HWRCRqP3Z/DNfcz/K7T5vxv2ngAXk6gJHM0HjRB6NwAAMIaNVNHb8/VXOywaoJ8ucsfNUDRngOa/cmb65fsG6GV3/K9vT9RP3SpaL6iCnOWaszlOUxfMUv6DrQgc1fv07IISBRNTlfNgaqNGvVWu7ZuD8o1M1WC3xF4L8uy9hco70FPzV8xRzh1NzsEKKf9AO3eax5t7OeGhgRtSTAAwjfptHzS8LqR8n7ZsMgHDachLvlEPafvWp5Sd5kyeXWvWl3Srnn7jKVXMsqHlXJKVufAX2r5iXJN6j3z6ufOYktTTeQQuRhEPHOcKGiH0bgAAEEmde6er8I0cPX1X647+Bdf+3rneY/wj4+QPlxtO7lFgnTRhaKpbYMWp+71jtP2NxzRjUFc17RNxHTqsveZh/I3htsmnlKHmYWeZSkMFjhM7SrREqUrv7xacxY6t+5zHIde7Aes81hfW7hKtMg++3j7zrGZUV6h083JNzimTr++tmvDNOHcGcPGJXOA4uKMFQSOE3g0AAFwnK/TZl+U6aofySp0sd8fN8FmFmT5yZvroqcoz419WnHVfe3Y+jZ+VKb+vlY3e6hKtXBKUkgfq4buaaVqbxvdKpcg/uH7dqZqac6f6nus+MV8clnN5R93duBqzRyrLGr7unVtLpLtSNfhcRzHL1mn+ogrphnSNGuSWncf6mrAXnS8q0k4Tox52TtlqqnTFXCUMelSpU4q1/ro0rV72fQ1ubp3ARSBigWP/2/+p9Z8nqLf5Nulff+gd26gng94NAABO++R9vfTya1pqh8BB7Q6442Z46b8O6s11Z6ZX7z2o1e740pffVXtfd3xi6zt6ukwa/eCdSm9mR75j2z4FR6RqSLvchPIsd8Oqr7xYuVP/oDUmFMz/dWbbNfary1X0m2eUtUlKn5GlGc5tu8JIvV2FSydq5SwTxA4Ua/iohVrT+FIU4CISscDR+56ZevVfHm065H5Hw91lLHo3AACoJ2WApv9kgmbZYew1Shvrjpth+ohrNPpHZ6YnDbxGk9zxWT+5TS25TKHtlCuwqkRB+TTB39yOvFQ7/lAh/619mj+1qC01dzes+g4VKedHy0N3jFr2WPOhoLXsb3csmC//8xVKn5yl9VNC15CEk5Jm71KVpvGTH1Lhils1+osyTZi99tynagFRKmouGg+P3g0AAC5K5Tu1YZ15HJGmZm9qFdyn9bsTNPrmJpdgt0yPns6F2mruh/HsuU39e54OM+HuhtXAgY2allGg3GBX5Tw3R9mN76jVyvWdVl2mgtnzNWaFCVdTJ2r1Pw0Mc/F8M/rcqZ/fZR53lqiIG1XhIhXVgYPeDQAAGonINRznoWS/lpiH8SMHNtt7ccQEgDWJfTSs+YP9Z5fU0/kxwTUfhmuJB1W61Txc39M9fSrc3bDOOLG7QBn3Fir/ZLIWrzBhY2iYc7xatT7X8RLlTV6orA1VynzkIa2anqbLWnWKVlf1OEuHDHAxiOLAQe8GAABNVHyh9//7fe22Q5kJH2XuuBne/6RCH314Znr/4Qrtd8d3//ff9JlbRXvYsdPe4SlBw1Obay1XasfWUmlsqgad7zUSXW/QIHtBt6mnyelGH5Q6F3iPvvmGUAAIezeskBPFy5UxuUjr45OV//JDyurTzH2xWrM+y/56+KSlmlMcq6x5s5R/f0r4no1D72jOvbOVMq8ozC+KmyCz3z72lO+sF54A0StqAwe9GwAAhHHZNRp+y+DQ0Lebru3rjtvhxm7qPejMdNpV3ZRWN++Wr+tatwrvHdaHO+0PEqZoUHOnL1WXqOhVaerQfi0/vaiJZI251wSa3UXK31r/BxArFFgeMAEgWVkj3cZE2LthGceLlDO12Fk2f+UsZV53tjtxtWJ9tmxhvnL2SpkmbCzOOEujJmmQhl9fpWBBoMnF4Se2FurpTdKgyekaxlFYXKSiNHDQuwEAwMXrc5XaDo7+PqU0tzPfV6JVx30aNvjCbk/lG5elfH+Fch98QtOeN43+zQEtmfGExhTYhv5Eje8RWq65u2HtLVirPPuL4H3i9Omq5cpb1HTILy4PLWy0dH3aV6gcU2bbND3KNoatN6+gxP1Rwq4aP3OMMhODysqY69ZbpIKFuRry4C592jdNedNacd0HEGViag13/LwlDJjpPFa895TzeGGqdPKYFN8l1p1uO3Y722YbAQAXi7bdR7WtF198Uffdd587dW4HNzyj9Kc+U//r3VN+jlfoIyXo2rof1Pu8Qp91T9CV7i705CcV0tUJ7gG8Kn20t4f+n9UPadyF/mh1cb4SJu3S+HnZWpkR7pSpXcodkK+cEWNUuvjOsNdw2N+aSF17s0oKmv66dmPBVblKeTyonGXN/CJ4dZnW/2al5q8uU9EXUsoNyZr6vydrxvC6F1qq/MxnVDDuIRXeX39tQRVMy3VuU3s2TV7nOdd3ZpvPqvH7c6hE+YvXKv/1oFOvz9dTGRPv0pxJafLxOxzwWGu/j1ojCgOHdwgcAHDp+SoFDntr1c2vvq4/fe5Ot9KVA0fqgVsuNG0A+CoicLQRAgcAXHq+UoEDADzi5fdRlP8OBwAAAICLGYEDAAAAgGcIHAAAAAA8Q+AAAAAA4JlLKnBwwTgAAADQvujhAAAAAOAZAgcAAAAAzxA4AAAAAHiGwAEAAADAMwQOAAAAAJ4hcAAAAADwDIEDAAAAgGfaJHB06BCjmBipuqbWLQEAIPLsfsnun+x+KlrV1rLvBBBZXn8PtUng6N/7anXrkqBX3/izWwIAQOTZ/ZLdP9n9VDRKSkrSxx9/7E4BQGTY7yH7feSVNgkcD2QM1ZflFXrwkRVavXEXPR0AgIiy+yG7P7L7Jbt/svupaNSvXz9t3bpVH330ET0dANqd/d6x3z/2e8h+H3klxqyoTb7hJv3zC/qPwu3q3jVBR49VmBfgzgAAoJ3Z06hsz4YNGz8YM0TLfv2AOyf6lJWVac+ePTp06JBbAgDtx/Zs2LCRnJzslrS9Ngsc1v954W29sGqrdu//RDX0cgAAIsRes2FPo7I9G//rgdvcUgBAJLRp4AAAAACA+rgtLgAAAADPEDgAAAAAeIbAAQAAAMAzXMMBXKTsP9zKqhpVmX/C9hagzh9TaO/OE2P+dOwQo1gzERfbwUwBAABEBoEDuMjUmH+yJ03QOFVd45acW6eOHRRvgkcHm0YAAADaEYEDuIjYkHHChI3z+WcbY8JGZxM6bPgAAABoLwQO4CJRUVndql6N5tjAkRDX0Z0CAADwFoc6gYvAOcPGqSp3pJ7qKpUfLTdDhU5Wu2WGrcfWBwAA0B4IHECUswHhbGHj5H+vVtYPFmj+1i/cElfJf+i2exeY4Vf6bYlb5jpXnQAAAG2FwAFEMXuBuL1mozk2bPz8n7dpZ0WFCh5b3DR0nIWt19YPAADgJQIHEMXs3aiau8zqTNhwC9S60GHrtfUDAAB4icABRCkbM5o/7ekTvftupW75/kCNSXWLfFcr8/4+6lqyR3895Zadg62fPg4AAOAlAgcQpeyP+jXvat16/w/0jz/+gTIHuEXX99NPzfQ//vhburGTW9YCZ18PAADAhSFwAFHK/oJ4e2iv9QAAgEsTgQOIUtU17RME2ms9AADg0kTgAKJUbTtdXdFe6wEAAJcmAgcQpdrrTCfOqAIAAF4icABRKibGHfFYe60HAABcmggcQJSKMX/aQ3utBwAAXJoIHECU6tihfYJAe60HAABcmggcQJSKbadzndprPQAA4NJE4ACiVFxs+/zzbK/1AACASxMtDSBK2X6HTh1b/0+0fNuLumfk4xoyc49bIr0w00yP/JWe2lbuloTY+unfAAAAXiJwAFEsPtYEglae8tT15vv0zGM36kZ3OiRBdz82RTNv7upO27tTxTj1AwAAeInWBhDFOphQ0Pk8QkHybZPrhY5Q2Jh72xXOVB1br60fAADASwQOIMrZ057OemrVZV3V93+YISnBLQgJhY5+eiBM2DhnnQAAAG0kptZwxwFEsYrKap2qrnGnzp8NGglxHd0pAAAAbxE4gIuIDRwnqmp0Pv9s7TUb9jQqejYAAEB7InAAF5ka80/2pAkdrentsCHDXiDONRsAAKC9ETiAi5T9h1tpgkeV+SdcXVNrps0fU2gzRYz5Y39B3P6on/2dDWIGAACIFAIHAAAAAM9wMjcAAAAAzxA4AAAAAHiGwAEAAADAMwQOAAAAAJ4hcAAAAADwTJvepaqsrEx79uzRoUOH3BIAACIjKSlJ/fr1U3JyslsSndh3Aoik9viubLPAYb8wt2zZoqFDh6pXr17OrxoDABAJdtf28ccfa+vWrRo2bFjUho66fee3v/1tZ6cPAO3t888/VyAQ8PS7ss1OqbJHZ2zYuPbaawkbAICIsvshuz+y+yW7f4pWdtsIGwAi6fLLL5ff7/f0u7LNAoftCrY9GwAARAu7X4rmU5XsthE2AESaDR1efle26UXj9GwAAKIJ+yUAiDzuUgUAAADAMwQOAAAAAJ4hcAAAAADwDIEDAAAAgGcIHAAAAAA8Q+AAAAAA4BkCBwAAAADPEDgAAAAAeIbAAQAAAMAzBA4AAC5m1eXav2uHNr8bZtj1Nx2tdpcDgAiJnsBRXaWjX1boJF+MAAC03O41Gjn9Zc1d+pp+1WBYo2nTn9Gi3e5yABAhkQ8cB3fot488ptTbH9Pgsb8wj3OU/sgr2nywyl0AAACcXV/N/5dH9WqD4R790J0LAJEUU2u44xfkxRdf1H333edOtczJXSt17z/v0O4Kt6C+hGs0/3cP6YdXudMAAJyH89k/tZdWb1vFAb3w1At66UN32jpeod0HpN59ExTvFoVU6aO9Zgd7XVddm+gWWdcP1tMzv6feCe50a1WXKO+upZpTJmUvzVXO8Dh3Rn27lDsgXzmTs1Qxa2CoqDhfCZN2KWfZU8pOCxWdU3W59m5Yo2dXlWj95gqVmiKfr6vG3HW7ZvzMr75dQ4uFhFkngBbz8rsycj0cp97Twifqwkasht83Us8tvEfz77tS3WxRxd805/9eqeJTdsIDwY2aMGCmEs455KvIfQoAAJF08O3VmruhXLv31hsO2DMCqrS/fpkzVOiomXP0QKPyDZv0q7cPO/WdjxNb39HTZQlKv0HKD/xZJ9zyNlf2juZkztWQ2btUmpSqnEUTVbg0U7kZl6u0YK2G3DFXucXhjlgCXz3HPtqhvQfdiRY7pt3rChT4MPJnDUUscBz949v6109D4w8seFQrpn1H/ltu0Q+nzdSrc64JHaU5sENrij16kxJ7afTUNM0/PaRotC0flFKvzA695XOeAABAhFW30T7xvOup1JZAiYL90zVnYk8FV7ypDV+4s9rSyRLlTv298g4kK3/dL7XqyYnK9KfJPzxdmdMfUuEbE5XjK1fO1KVa78X6gShybPcr+rflr+mVZfkqanHoOKYdLz2r1dv364///qw2lLnFERKxwLF/74HQSMJgjR/WsF/32lG36QF3PLC/fr9xG+qaqqzpEzXj9ODXMFue5q9XZodbleI8AQCAS9wXf1TBCsk/bqBGDzeDypT/etu3ZEpXv6KcD6QZC/+nMq8Lc8pW1zTNmJ2q9OsqVXqAXg58lR3RzqK9OlZjRk+U6Q8tCh2hsPHavjP9j1WnPOuLbJHouUtVNCvfpzULF8o/InSaVerYhcpdV+pdNzIAAFHoyOZtyldPZY5Ika67XVmjpPXPvaMdbXqHyVIFfn9YShyojG82f6FJ5xFTFHh5lqYOOsfFKMFiLXkkV2PuqDtVerb8U57Rkq2NTyurVHBzgabdO1spp5dbqoK95e58V/VhBZYsPFPfiEc1Yd5GNV7MOrEvoNwZjyrVqW+mhkwKU59l2hkF83JPtzNS7piraUuKFeTOndBl+lbWj/UPPdzJc4aORmGjw2UafO+P9b0bOoemIyRigaN33+tCIxU7tGZLw6MTH214Wy+44/5vXO+ORcjxXcr90WJNKKiQf2amCpeO04zUo1o8+xmNXriL0AEAaDfxvQboH388+IKH23udzxXjZVq9okwaka4xzi68q7490gSPsl16a6+zQNs4tE8Beyvfsaka1DFUdN6CG5U1drnm70vQ6Ol2Hz5RKx/vo6v2lurhBxdqyT53OePIhsVKn1KkTwfcqjyzXOGiO+U/WaKse+cr7/TrK9f6R57QmOcqNOhn45z6Vs3so5OvFmrIjwoaBK8TxfkanbFWOcXdlDXPrHvRGE2I3+fU1+Dak+p9yjPtjKytscpw2hkTlTexm0oWLVf6I+/oiLsYLmEdemnU1JaEjmbCRp8uoekIiljg6Pat2/RT9w5UL8z+pe5f/J8KvPuuXlr8lMbO/5tO2hlX3aIfpsU6y0TKjmUFyvnAp/xVjyknI13+4X5NXfCY1s/uqaLn12qle2YYAABei7/yOn1zYN+ww/h779UPh7nTw76j6fd+s8kydUP/K88jcBzYpjU7ZRrww05f23iZ/1ZlJ1bo6bXFbXcAzjTanboSE3Shx2T3Boq1U8kmQDykGc4+PE3jM6do5ZJ0DVKFAu8F3SUP661XSxUc+l09nTNO481yfv+dylmSqamJlVq/1U0mh7Zo5Tpp/Owpmp/pd+obnZGlFxf0ke/4Hm2pCybVJXr2kV0qSh6owIZsZdt1m/qyl8xSvr9COVOXK+A0dIz3ivT0B1L247PObOPkWVoyu6sSSkq05ZC7HC5t5wwd0Rs2rMidUtVpgB74UU93okqbX3xdD856RXNe/My5q4Y16mcj1f9Cj25ckH16a1WFZL5Uxie7RY449R17q7LMF1TBJnuTPgAAvHe0eJ3un7Uy7PDSh0e1Z537o3/r3tfRD98Ou5wdFhW3/i5VO9YVab1SlXlHvXvRxt8kf4a8u3j8AvXNzNb2rbM0vq6RViepZ6PrM7uqu93Pb/2j8gp2qfR4Zag4MV1Pb12gwkl9QtNdL1dKorTmd79XfnGZTrg9Gp3901T6xi80tX9oWu9t09Nlkn+SX+n1b0nc0afMBweacFJiQoy7jh7dNMQ85C9arvUfHD5dZ99Jv1DJq1M0Oik0DTQfOo5EddiwInoNx7WjbtcDzR1kSfiGJt3W4AbbEVBhP0v5b/Q1PcrSI/RlFfi0Lh4BABA5Rz+Xhv/sIa34tRl+NkD6vA0vpq4uCR2AU4nG3Oxeu+AM2Rqzwi7QhhePJyboavt43OyDnYI2cLxcpbuLFQhs1JIFz2jCTzdqjTsrJM6Eg+9rRt8KLZmXr9Sh2Uq54wk9vGijAh/Uu+YiPk1Z8/rIH9ynaZMWqscge13GM8pbVazSeosFDwRl+05S7PUem8166w+fysQ2qTTohr7r7tTcWT4lFBcrY+wTps7Z8s9Yqvx1+7iGA02FCx3/+tuoDhtWZC8aT7hFP2wmcaRNG6XhndwJAABwVi/NXaDBY395ekif+74758KFfntDmvqI/S2MxsM4ZfeX1v9+m/PDfBesax8NG2EeXy3RzrM1uMvf0ZyxuXr45X3NB5PyEi2ZMlsJQ+cqNXO5xsw2QWOf1Pe7veR3Fzkt+VbNL8hVacE4LZ6UomGJR7VkSaHGjJ2rMUtKTq8jZdQ0FW7K1uYFfmWP9an7B6Wa8/hypd4xV3k73V6LqtBth/MXmHVOaTTM3qWAmbfmw7rTuRI0eHK2SjY9pMJ5t2rGHQn6cnOJps1erBT/Qq2pWwyo0zh02DtYWVEaNqzIBg6j/9jvaJQ7flrCNzR91DXuRCQlqHOyFPhrsOmX2ReHnS/W8dfzKx0AgK8y97c3ElM1/l77WxiNB7+yxnWVdhdpjb3Y+4L5lO7v6dy0ZdWfmu+lCf7hj8r7wOyfE69q5lqPcq2ft1QP7/RpccFj+mLnU6qwp0ctfUg5E1LV3V2qgY5x8vU3r2f2Q1r56gJVbJqmp034CSx6R1vqrrmw4n0afNc45TyZrcCmXH1ScKvGHy/XHPdaFt+Nyc51LtnPmXW+18zQ+NfQe6TIn/F9zc/7hbZvNsEnL1WDvijTkj9w6jbCaBw6ojhsWBEPHOo+QtN/0rCX49ofDZf/fG6g0eb66NsZZkMKAlrToKe4UntffUf5JpD4BxE4AABfYeUmSKwwjeiMmzXM+VXeplJG3KzRaruLx1Puvkc5N0h5s/4/FRxwew3qObFvrbKfDEo3pOvno5o7/foD7VxnHgakyt+/pzqfvia0UqWBYueUqtJDdadF79OSSY8q9fGihttvQkBf5/hnnBLsPWx2/14ZY2fr4UD9IBSny3onh64JiY8LhZ++/ZSVKOUv26jSRr00pasWKmXobOVsCtVx5I2lGnPHEw3umOUEnxt9sm3J7vFR0SBCNHJCx891z8hRuufBn0dt2LAiHziM/neNqNe1eY1m3d3XHY+8wZMyzZdeUFkZTyhnVZECmwNaMvsJjV5wWOmTM5XlXkcGAIDXrrh9pP6xtztxnuJ7D9b02690p87tyKYiLTGPWf6bmr9r1HU3a/ygNrx4PD5V2UvGKCu+TFl3PaqMR5arwIQEuw/On5erIRkBFcQna+WSTA1u9uYyqUq/3zxs/YMezlmrNfb6iXVrNWf6o/IvDDo9EDuP1gWH0GlcpasKlDG73rpycpVVIKXP+JbS7Xr63mTaK1WmHTBf0xZt1Pq6OqcUKE8Jmj8uLVRdfJrmLBmolECh/JnPaMm6M9s+5vEyaeidynJ/Y+SytFT1LT+shx/M1ZyCgHOdx/pVyzXtITOemKKsOziwibPokKS+t/yD+voie1fXc4mpNdzxC/Liiy/qvvvuc6daq0qb8x7T/a9IvX+cpVd/0lfNHETx0C7lDshXzuSspt2c9of//mWtnl5dpiLzRZpyQ7Kmzpqgn/uTL/iWfQAAb13Y/slb0bxtIWXKv3+hpu1MVeG2KfKfZedcWvCEUucd1ujHZ2lV5udN96nF+UqYtEs5y55SttsuPyd70fWy5Vry2sfasrcqdCH2DT6N/v6dmjMpTb4GYSPMfry6TOt/s1Lz3f23z9dVY35wl7LvT1HRbBMmjvpVsmKce8eqCu1dZ4LDc3tU6K6rb99kTXjwHs24K+XM/v54qdYsfsWEiDIF7EKJsfIP76ep0zM1vk/D3ogjewN6dvGbWrm5XHuPn2XbDxVrycKNWvlO0NlO9UjQ+Ftv1sOzvq907lKFduLl91GUBA6jukpHj1UqvkuC4ps9WgEAQOsQOADg3Lz8PoqKU6ocHWPVrTthAwAAAPgqiZ7AAQAAAOArh8ABAAAAwDMEDgAAAACeIXAAAAAA8AyBAwAAAIBnCBwAAAAAPEPgAAAAAOAZAgcAAAAAzxA4AAAAAHiGwAEAAADAMwQOAAAAAJ4hcAAAAADwDIEDAAAAgGfaNHDU1ta6YwAARF6075eSkpJ06NAhdwoAIuPw4cPO95FX2ixw2I38+OOP3SkAACLP7pe83IleqH79+umtt94idACIGPv98+abbzrfR16JqW2jwz9lZWXasmWLhg4dql69eikmJsadAwBA+7K7Nhs2tm7dqmHDhik5OdmdE33s/nPPnj2EDgARYQ/K2LDh5fdkmwUOiy9NAEC0aI+dKADg3No0cAAAAABAfdylCgAAAIBnCBwAAAAAPEPgAAAAAOAZAgcAAAAAzxA4AAAAAHiGwAEAAADAMwQOAAAAAJ4hcAAAAADwDIEDAAAAgGcIHAAAAAA8Q+AAAAAA4BkCBwAAAADPEDgAAAAAeIbAAQAAAMAzBA4AAAAAniFwAAAAAPAMgQMAAACAZwgcAAAAADxD4AAAAADgGQIHAAAAAM8QOAAAAAB4hsABAAAAwDMEDgAAAACeIXAAAAAA8AyBAwAAAIBnCBwAAAAAPEPgAAAAAOAZAgcAAAAAzxA4AAAAAHiGwAEAAADAMwQOAAAAAJ4hcAAAAADwDIEDAAAAgGcIHAAAAAA8Q+AAAAAA4BkCBwAAAADPEDgAAAAAeCam1nDHL1hZWZn27NmjQ4cOuSUAALSv2NhYVVVVKSkpSf369VNycrI7BwAQCW0WOGzY2LJli7797W87X/IAAETS4cOH9eabb2rYsGGEDgCIoDY7pcr2bBA2AADRomfPns5+ye6fAACR02aBw55GRdgAAEQTu1/iNF8AiCwuGgcAAADgGQIHAAAAAM8QOAAAAAB4hsABAAAAwDMEDgAAAACeIXAAAAAA8AyBAwAAAIBnCBwAAAAAPEPgAAAAAOAZAgcAAAAAzxA4AAAAAHgmsoGjolxHv2w8VOhktTvfaskyAAAAAKJSTK3hjl+QF198Uffdd587dW4HNzyj2375N510p+uL/9ZIvf3kd6QWLHOFOw0AQDit3T8BANpWxAJH8eI5uvdFd6KJAXr57YlSC5ZJc6dar1LB4oDyf/eOCovLVfSFLYtVen+fxky4U1njBsrX0VnwtKKFM+V/3p1olk/5b2Qr0xeaqntO5pPZyh/rFjYSWmagAu9lKb1BmTvRrPDrCs99bT++RzPuSlFnt7SxI+sW6urZZdIgv0pWjFOKW95AcKMm3FGoNZOzVDFroFsIANGJwAEAkXVpXsNxvFT5sx5VyqRC5R+6XBkzM1W4dKIKF9wq/41Hlf94vlLuXqz1pt3dVIIy70/T/KnNDTcpJdFdtJ6CeQVa74Sa1jifdXVV9gLzWuzrqTesmjdQqdVlypn9jKauCrrLNlam1SvKNOiGBPl27lLggFsMAF45uFc7PjrmTrTcx28V6LU/H3GnAADR7BIMHEGtMY3uaRvilL3oMZWseEgzMtLlH54m/13jlPPkL7R9lV+ZwX2amveOmu7OumnMgxM1Y3pzw11K7+ouWp8JOVOfDFff2ZzPuhKVerN5Lfb11BtGZ0zU4mUTlZ1sws+ThSoKdw3MgW1as1PyTxujrMTDWrKuxJ0BAB4oC+jflr2i15b/Tq/ta3no+PiNZ/W7d/Zrx9p/04rtrQ8rAID2dckFjhOb12pGQBr9yBTl+Hu6pQ117jNO//RgV6Wc/Eyl5W7hBemjnMkJCq77veZvqnDLIiAxTWNGmsfjQZUeChXVt2NdkdYrVaPvMAEsQ9r53DsKhLuABgDawP53t+nTE2ak5oh2vNyy0OGEjS1nvsAqT1W5YwCAaBWxwHHF1eEb+47ruqqbeWjJMq1TrsCqEgWVrKy7wl6dcNrgqb9QIO/7Ghyut6LVEuSfdo/Tu5A3a7kCx93idleuT/9mHxPUvfGpWNUlemtVhXz336xh8XHyj0vXoOMlKnijTRIXADTR++6f63s3uFeUtSB0NAwbnZV8x4+VlX6ZOw0AiFYRCxzX3j1TJa8+qh1hhpLfjVfvFi7TOh9o5zrzMDRVg3qEStpNYprmzBvoNOLnLCqWPajXro6XKbAoTzM2SOlT75S/UZA6sfUdPV0mTRuVFrqgvH+a7jMBKf+Nba08DQwAWqqLBv+oZaEjbNgYluROAwCiWeROqao+qv3//b52hxn2H3a7yFuyTGsEg9puH/v3Cn/3pRYJKuuOmUoY0MywcJe7XFOdh2Zqfqa0c9krmr+1JadWnc+6mnnO0IUas+yo/NMnavW01EZ3qarUlkCJgsnpGjXILVIfjX+wp7ThHa3m4nEAnjl36CBsAMDFLWK3xd3/4i80cnEzje6EwXp5wwR1a8Eyrbot7tlu51qcr4RJTRvw4+dla2VG6L6zodvO2jtHpWpIc6dapd6uGXckuxNhbnl7vEhz/AXK85myAlOWeLbb4p7PuuxdqsbL7/bgfLn3TT29sExfjrhVzy9o5hSxLwKaNmKtSh95SIX314tiB9Yq466APpk+RVumprqFBrfFBdDmjmnHvz+r1z5w+387XKbB996vQQcKLjhscFtcAIisiPVwHD1yliP8FaHei5Ys0ypJl6uvfdwfVJMbwyb1bnjL2bHNXT9yjjtH1QsAYSWma868FPk+2KXs50rOcWrV+ayr4V2qxk+epfXLBqr7pnd09yMbVRrm7lRHNm9TvnkMPPlMw14REzbWm3IuHgfgvXA9Hb+lZwMAvgIurbtUdeyjYXeZx02lKmncgL7u1oaN+R/0cme0vctGTdYSsx1FS5Yrb2elW+qdzmn36zdTExQMFCprceOQE/rtDQ1K08pGv93hDLNTpOMlWr/V++0EcKlrHDpCD4QNALi4XVqBQ13lz0iVTyXKe7nULYuErho9a4wyEyuU81hBO9y1Kk6Dp0xUzg2hkPPsXrfYcn97Y/S42zW+3u92nB4y0zXDLJa3+o9cPA6gHTQKHYQNALjoXWKBw+y6ho9Tnl9a/+RS5QQOu6WNBIuV+5vmL/5uE747lft4snwfFCunwC3zUnyqZsy2YatCc/I2nj6lbMcG+9sbPU3YaOZUsPg0jb7fPHLxOIB2EwodP/6/Rul7E39C2ACAi1zHHMMdvyDvvfeebrrpJnfq3HrGH1LgzU91MMylGL3v/o6mDr9KV7dgmXh3uuW6qO+oAbop+K4efuo/teKPf9Ghqgqp/LBK//yu8p/7d0179L+0+pNYjZ/+I+X9qI+6uLGsbPMG5e+oUXz1J/pw5y4VbQ0/7I29QYOvDm1Z6Dk+Zf3PwWp8klaX3l/X1Xv/qNVOZ0vDZc5/XV10949v1YAuTlEDsdf30tV/NuvbtF8nvv5Njb7hryp4tEh/uDFd/++D31D4u9l31FWxB5T/6kfa2+M6/fQfrpD+/le9vGy//lJ7RF0/2Rd2u45cNVC9u7tVAECrdVK3q67RVZc1vKfe+Wjt/gkA0LYidpeqyKvUkQ+KtfJfAlqzNaiAe8i/b99kjfrBrcoamaa+PeJCha7QXaDcibNoemerhnegaqBsnSaM+oPWKNxdqtyJs2i6Lp/y38hWZqioqQ/WKmNsQOuTB+r1Ryr1wPQSpTa+O1VjJ4uVM2K5cpWqwk1T5D/i3qXKnR1OzrKnlN2qW4gBgDe4SxUARNYlHDgAAJcC9k8AEFmX3DUcAAAAANoPgQMAAACAZwgcAAAAADxD4AAAAADgGQIHAAAAAM8QOAAAAAB4hsABAAAAwDMEDgAAAACeIXAAAAAA8AyBAwAAAIBnCBwAAAAAPEPgAAAAAOAZAgcAAAAAzxA4AAAAAHimzQJHUlKSDh065E4BABB5n3/+ubN/AgBETpsFjn79+umtt94idAAAooING4FAwNk/AQAiJ6bWcMcvWFlZmfbs2UPoAABEnO3ZsGEjOTnZLQEAREKbBg4AAAAAqI+LxgEAAAB4hsABAAAAwDMEDgAAAACeIXAAAAAA8AyBAwAAAIBnCBwAAAAAPEPgAAAAAOAZAgcAAAAAzxA4AAAAAHiGwAEAAADAMwQOAAAAAJ4hcAAAAADwDIEDAAAAgGcIHAAAAAA8Iv3/jo3SbKHISjAAAAAASUVORK5CYII=;" vertex="1" parent="1">
          <mxGeometry x="87" y="130" width="226" height="76.94" as="geometry" />
        </mxCell>
        <mxCell id="MGJxNX5ja89FjLUUblip-5" value="" style="endArrow=classic;html=1;rounded=0;" edge="1" parent="1">
          <mxGeometry width="50" height="50" relative="1" as="geometry">
            <mxPoint x="260" y="90" as="sourcePoint" />
            <mxPoint x="480" y="90" as="targetPoint" />
          </mxGeometry>
        </mxCell>
        <mxCell id="MGJxNX5ja89FjLUUblip-6" value="" style="rounded=0;whiteSpace=wrap;html=1;" vertex="1" parent="1">
          <mxGeometry x="490" y="60" width="300" height="170" as="geometry" />
        </mxCell>
        <mxCell id="MGJxNX5ja89FjLUUblip-7" value="Your available trains" style="whiteSpace=wrap;html=1;aspect=fixed;" vertex="1" parent="1">
          <mxGeometry x="580" y="80" width="120" height="120" as="geometry" />
        </mxCell>
        <mxCell id="MGJxNX5ja89FjLUUblip-8" value="" style="endArrow=classic;html=1;rounded=0;" edge="1" parent="1">
          <mxGeometry width="50" height="50" relative="1" as="geometry">
            <mxPoint x="620" y="200" as="sourcePoint" />
            <mxPoint x="620" y="290" as="targetPoint" />
          </mxGeometry>
        </mxCell>
        <mxCell id="MGJxNX5ja89FjLUUblip-10" value="selected a train now it redirects to booking&amp;nbsp;" style="text;html=1;strokeColor=none;fillColor=none;align=center;verticalAlign=middle;whiteSpace=wrap;rounded=0;" vertex="1" parent="1">
          <mxGeometry x="630" y="250" width="150" height="30" as="geometry" />
        </mxCell>
        <mxCell id="MGJxNX5ja89FjLUUblip-12" value="" style="rounded=0;whiteSpace=wrap;html=1;" vertex="1" parent="1">
          <mxGeometry x="480" y="300" width="330" height="140" as="geometry" />
        </mxCell>
        <mxCell id="MGJxNX5ja89FjLUUblip-13" value="Book now" style="rounded=0;whiteSpace=wrap;html=1;" vertex="1" parent="1">
          <mxGeometry x="645" y="340" width="120" height="60" as="geometry" />
        </mxCell>
        <mxCell id="MGJxNX5ja89FjLUUblip-14" value="Train&amp;nbsp;" style="ellipse;whiteSpace=wrap;html=1;aspect=fixed;" vertex="1" parent="1">
          <mxGeometry x="520" y="330" width="80" height="80" as="geometry" />
        </mxCell>
      </root>
    </mxGraphModel>
  </diagram>
</mxfile>
